<svg width="213" height="149" viewBox="0 0 213 149" fill="none" xmlns="http://www.w3.org/2000/svg">
<rect width="212" height="149" fill="#303538"/>
<path d="M47.864 104.144C47.264 104.144 46.718 103.988 46.226 103.676C45.734 103.364 45.342 102.922 45.05 102.35C44.758 101.778 44.612 101.1 44.612 100.316C44.612 99.664 44.706 99.09 44.894 98.594C45.082 98.098 45.34 97.682 45.668 97.346C45.996 97.01 46.372 96.758 46.796 96.59C47.224 96.418 47.676 96.332 48.152 96.332C48.74 96.332 49.256 96.454 49.7 96.698C50.144 96.938 50.524 97.32 50.84 97.844L49.952 98.156C49.684 97.824 49.396 97.58 49.088 97.424C48.784 97.264 48.46 97.184 48.116 97.184C47.664 97.184 47.248 97.31 46.868 97.562C46.488 97.814 46.182 98.174 45.95 98.642C45.722 99.11 45.608 99.668 45.608 100.316C45.608 100.892 45.702 101.404 45.89 101.852C46.078 102.296 46.344 102.646 46.688 102.902C47.036 103.154 47.448 103.28 47.924 103.28C48.288 103.28 48.614 103.196 48.902 103.028C49.194 102.86 49.424 102.608 49.592 102.272C49.76 101.932 49.844 101.504 49.844 100.988H50.132C50.132 101.628 50.056 102.184 49.904 102.656C49.752 103.128 49.508 103.494 49.172 103.754C48.84 104.014 48.404 104.144 47.864 104.144ZM50.012 104L49.844 102.224V100.964L47.948 100.904V100.268H50.756V104H50.012ZM56.2587 104.144C55.8387 104.144 55.4727 104.048 55.1607 103.856C54.8527 103.664 54.6147 103.384 54.4467 103.016C54.2787 102.644 54.1947 102.192 54.1947 101.66H54.5907C54.5907 102.016 54.6647 102.316 54.8127 102.56C54.9607 102.804 55.1527 102.99 55.3887 103.118C55.6287 103.242 55.8827 103.304 56.1507 103.304C56.4387 103.304 56.7147 103.222 56.9787 103.058C57.2427 102.89 57.4587 102.644 57.6267 102.32C57.7947 101.996 57.8787 101.596 57.8787 101.12C57.8787 100.664 57.8007 100.274 57.6447 99.95C57.4927 99.626 57.2867 99.378 57.0267 99.206C56.7667 99.034 56.4787 98.948 56.1627 98.948C55.8907 98.948 55.6347 99.014 55.3947 99.146C55.1547 99.278 54.9607 99.472 54.8127 99.728C54.6647 99.98 54.5907 100.292 54.5907 100.664H54.1947C54.1947 100.108 54.2867 99.642 54.4707 99.266C54.6547 98.886 54.9047 98.6 55.2207 98.408C55.5367 98.216 55.8907 98.12 56.2827 98.12C56.7307 98.12 57.1487 98.24 57.5367 98.48C57.9247 98.72 58.2387 99.064 58.4787 99.512C58.7187 99.96 58.8387 100.496 58.8387 101.12C58.8387 101.752 58.7167 102.294 58.4727 102.746C58.2327 103.198 57.9167 103.544 57.5247 103.784C57.1327 104.024 56.7107 104.144 56.2587 104.144ZM53.6547 106.82V98.264H54.4347L54.5907 99.608V106.82H53.6547ZM63.4582 104.144C62.9022 104.144 62.4382 104.066 62.0662 103.91C61.6942 103.75 61.4122 103.532 61.2202 103.256C61.0282 102.976 60.9262 102.656 60.9142 102.296H61.8142C61.8342 102.66 61.9802 102.934 62.2522 103.118C62.5282 103.298 62.9022 103.388 63.3742 103.388C63.6222 103.388 63.8502 103.348 64.0582 103.268C64.2662 103.188 64.4322 103.078 64.5562 102.938C64.6802 102.798 64.7422 102.64 64.7422 102.464C64.7422 102.24 64.6602 102.064 64.4962 101.936C64.3322 101.808 64.0702 101.696 63.7102 101.6L62.5942 101.24C62.1102 101.088 61.7382 100.88 61.4782 100.616C61.2222 100.348 61.0942 100.028 61.0942 99.656C61.0942 99.192 61.2982 98.82 61.7062 98.54C62.1142 98.26 62.6502 98.12 63.3142 98.12C64.0182 98.12 64.5642 98.264 64.9522 98.552C65.3402 98.84 65.5422 99.2 65.5582 99.632H64.6342C64.5982 99.38 64.4702 99.19 64.2502 99.062C64.0302 98.93 63.7182 98.864 63.3142 98.864C62.9262 98.864 62.6222 98.952 62.4022 99.128C62.1862 99.3 62.0782 99.492 62.0782 99.704C62.0782 100.1 62.4182 100.392 63.0982 100.58L64.2382 100.964C64.7302 101.112 65.1062 101.306 65.3662 101.546C65.6302 101.786 65.7622 102.092 65.7622 102.464C65.7622 102.752 65.6682 103.024 65.4802 103.28C65.2922 103.536 65.0262 103.744 64.6822 103.904C64.3382 104.064 63.9302 104.144 63.4582 104.144ZM80.0505 104V100.628C80.0505 100.08 79.9185 99.664 79.6545 99.38C79.3945 99.092 79.0425 98.948 78.5985 98.948C78.0785 98.948 77.6805 99.15 77.4045 99.554C77.1285 99.954 76.9905 100.508 76.9905 101.216H76.5585C76.5585 100.7 76.6085 100.248 76.7085 99.86C76.8125 99.472 76.9625 99.15 77.1585 98.894C77.3545 98.634 77.5925 98.44 77.8725 98.312C78.1525 98.184 78.4705 98.12 78.8265 98.12C79.2785 98.12 79.6645 98.222 79.9845 98.426C80.3085 98.626 80.5565 98.914 80.7285 99.29C80.9005 99.666 80.9865 100.112 80.9865 100.628V104H80.0505ZM71.9865 104V98.264H72.7905L72.8985 99.416C73.0785 99 73.3305 98.68 73.6545 98.456C73.9825 98.232 74.3745 98.12 74.8305 98.12C75.2825 98.12 75.6685 98.222 75.9885 98.426C76.3125 98.626 76.5605 98.914 76.7325 99.29C76.9045 99.666 76.9905 100.112 76.9905 100.628V104H76.0665V100.628C76.0665 100.08 75.9345 99.664 75.6705 99.38C75.4105 99.092 75.0545 98.948 74.6025 98.948C74.2585 98.948 73.9605 99.042 73.7085 99.23C73.4565 99.418 73.2625 99.688 73.1265 100.04C72.9905 100.388 72.9225 100.804 72.9225 101.288V104H71.9865ZM87.8331 98.252H88.7691V104H87.8331V98.252ZM83.7651 98.252H84.7011V101.828C84.7011 102.308 84.8171 102.672 85.0491 102.92C85.2851 103.168 85.6211 103.292 86.0571 103.292C86.4171 103.292 86.7291 103.196 86.9931 103.004C87.2611 102.812 87.4671 102.548 87.6111 102.212C87.7591 101.872 87.8331 101.484 87.8331 101.048H88.1811C88.1811 101.692 88.0871 102.242 87.8991 102.698C87.7151 103.154 87.4531 103.504 87.1131 103.748C86.7771 103.988 86.3811 104.108 85.9251 104.108C85.4931 104.108 85.1151 104.028 84.7911 103.868C84.4671 103.708 84.2151 103.466 84.0351 103.142C83.8551 102.814 83.7651 102.4 83.7651 101.9V98.252ZM99.9827 104V100.628C99.9827 100.08 99.8507 99.664 99.5867 99.38C99.3267 99.092 98.9747 98.948 98.5307 98.948C98.0107 98.948 97.6127 99.15 97.3367 99.554C97.0607 99.954 96.9227 100.508 96.9227 101.216H96.4907C96.4907 100.7 96.5407 100.248 96.6407 99.86C96.7447 99.472 96.8947 99.15 97.0907 98.894C97.2867 98.634 97.5247 98.44 97.8047 98.312C98.0847 98.184 98.4027 98.12 98.7587 98.12C99.2107 98.12 99.5967 98.222 99.9167 98.426C100.241 98.626 100.489 98.914 100.661 99.29C100.833 99.666 100.919 100.112 100.919 100.628V104H99.9827ZM91.9187 104V98.264H92.7227L92.8307 99.416C93.0107 99 93.2627 98.68 93.5867 98.456C93.9147 98.232 94.3067 98.12 94.7627 98.12C95.2147 98.12 95.6007 98.222 95.9207 98.426C96.2447 98.626 96.4927 98.914 96.6647 99.29C96.8367 99.666 96.9227 100.112 96.9227 100.628V104H95.9987V100.628C95.9987 100.08 95.8667 99.664 95.6027 99.38C95.3427 99.092 94.9867 98.948 94.5347 98.948C94.1907 98.948 93.8927 99.042 93.6407 99.23C93.3887 99.418 93.1947 99.688 93.0587 100.04C92.9227 100.388 92.8547 100.804 92.8547 101.288V104H91.9187ZM103.865 104V95.816H104.801V104H103.865ZM109.941 104.144C109.445 104.144 109.001 104.018 108.609 103.766C108.221 103.51 107.913 103.156 107.685 102.704C107.461 102.252 107.349 101.732 107.349 101.144C107.349 100.516 107.461 99.976 107.685 99.524C107.909 99.072 108.215 98.726 108.603 98.486C108.995 98.242 109.441 98.12 109.941 98.12C110.377 98.12 110.749 98.208 111.057 98.384C111.365 98.56 111.613 98.798 111.801 99.098C111.989 99.398 112.119 99.738 112.191 100.118C112.267 100.494 112.289 100.884 112.257 101.288H108.105V100.712H111.639L111.363 100.892C111.375 100.656 111.361 100.42 111.321 100.184C111.285 99.948 111.215 99.732 111.111 99.536C111.007 99.336 110.861 99.176 110.673 99.056C110.485 98.936 110.245 98.876 109.953 98.876C109.585 98.876 109.277 98.97 109.029 99.158C108.781 99.346 108.595 99.594 108.471 99.902C108.347 100.206 108.285 100.536 108.285 100.892V101.276C108.285 101.676 108.345 102.034 108.465 102.35C108.589 102.666 108.773 102.916 109.017 103.1C109.261 103.284 109.569 103.376 109.941 103.376C110.313 103.376 110.619 103.286 110.859 103.106C111.099 102.926 111.245 102.66 111.297 102.308H112.269C112.209 102.688 112.073 103.016 111.861 103.292C111.649 103.564 111.379 103.774 111.051 103.922C110.723 104.07 110.353 104.144 109.941 104.144ZM126.464 104V100.628C126.464 100.08 126.332 99.664 126.068 99.38C125.808 99.092 125.456 98.948 125.012 98.948C124.492 98.948 124.094 99.15 123.818 99.554C123.542 99.954 123.404 100.508 123.404 101.216H122.972C122.972 100.7 123.022 100.248 123.122 99.86C123.226 99.472 123.376 99.15 123.572 98.894C123.768 98.634 124.006 98.44 124.286 98.312C124.566 98.184 124.884 98.12 125.24 98.12C125.692 98.12 126.078 98.222 126.398 98.426C126.722 98.626 126.97 98.914 127.142 99.29C127.314 99.666 127.4 100.112 127.4 100.628V104H126.464ZM118.4 104V98.264H119.204L119.312 99.416C119.492 99 119.744 98.68 120.068 98.456C120.396 98.232 120.788 98.12 121.244 98.12C121.696 98.12 122.082 98.222 122.402 98.426C122.726 98.626 122.974 98.914 123.146 99.29C123.318 99.666 123.404 100.112 123.404 100.628V104H122.48V100.628C122.48 100.08 122.348 99.664 122.084 99.38C121.824 99.092 121.468 98.948 121.016 98.948C120.672 98.948 120.374 99.042 120.122 99.23C119.87 99.418 119.676 99.688 119.54 100.04C119.404 100.388 119.336 100.804 119.336 101.288V104H118.4ZM134.247 98.252H135.183V104H134.247V98.252ZM130.179 98.252H131.115V101.828C131.115 102.308 131.231 102.672 131.463 102.92C131.699 103.168 132.035 103.292 132.471 103.292C132.831 103.292 133.143 103.196 133.407 103.004C133.675 102.812 133.881 102.548 134.025 102.212C134.173 101.872 134.247 101.484 134.247 101.048H134.595C134.595 101.692 134.501 102.242 134.313 102.698C134.129 103.154 133.867 103.504 133.527 103.748C133.191 103.988 132.795 104.108 132.339 104.108C131.907 104.108 131.529 104.028 131.205 103.868C130.881 103.708 130.629 103.466 130.449 103.142C130.269 102.814 130.179 102.4 130.179 101.9V98.252ZM146.396 104V100.628C146.396 100.08 146.264 99.664 146 99.38C145.74 99.092 145.388 98.948 144.944 98.948C144.424 98.948 144.026 99.15 143.75 99.554C143.474 99.954 143.336 100.508 143.336 101.216H142.904C142.904 100.7 142.954 100.248 143.054 99.86C143.158 99.472 143.308 99.15 143.504 98.894C143.7 98.634 143.938 98.44 144.218 98.312C144.498 98.184 144.816 98.12 145.172 98.12C145.624 98.12 146.01 98.222 146.33 98.426C146.654 98.626 146.902 98.914 147.074 99.29C147.246 99.666 147.332 100.112 147.332 100.628V104H146.396ZM138.332 104V98.264H139.136L139.244 99.416C139.424 99 139.676 98.68 140 98.456C140.328 98.232 140.72 98.12 141.176 98.12C141.628 98.12 142.014 98.222 142.334 98.426C142.658 98.626 142.906 98.914 143.078 99.29C143.25 99.666 143.336 100.112 143.336 100.628V104H142.412V100.628C142.412 100.08 142.28 99.664 142.016 99.38C141.756 99.092 141.4 98.948 140.948 98.948C140.604 98.948 140.306 99.042 140.054 99.23C139.802 99.418 139.608 99.688 139.472 100.04C139.336 100.388 139.268 100.804 139.268 101.288V104H138.332ZM150.279 104V95.816H151.215V104H150.279ZM156.354 104.144C155.858 104.144 155.414 104.018 155.022 103.766C154.634 103.51 154.326 103.156 154.098 102.704C153.874 102.252 153.762 101.732 153.762 101.144C153.762 100.516 153.874 99.976 154.098 99.524C154.322 99.072 154.628 98.726 155.016 98.486C155.408 98.242 155.854 98.12 156.354 98.12C156.79 98.12 157.162 98.208 157.47 98.384C157.778 98.56 158.026 98.798 158.214 99.098C158.402 99.398 158.532 99.738 158.604 100.118C158.68 100.494 158.702 100.884 158.67 101.288H154.518V100.712H158.052L157.776 100.892C157.788 100.656 157.774 100.42 157.734 100.184C157.698 99.948 157.628 99.732 157.524 99.536C157.42 99.336 157.274 99.176 157.086 99.056C156.898 98.936 156.658 98.876 156.366 98.876C155.998 98.876 155.69 98.97 155.442 99.158C155.194 99.346 155.008 99.594 154.884 99.902C154.76 100.206 154.698 100.536 154.698 100.892V101.276C154.698 101.676 154.758 102.034 154.878 102.35C155.002 102.666 155.186 102.916 155.43 103.1C155.674 103.284 155.982 103.376 156.354 103.376C156.726 103.376 157.032 103.286 157.272 103.106C157.512 102.926 157.658 102.66 157.71 102.308H158.682C158.622 102.688 158.486 103.016 158.274 103.292C158.062 103.564 157.792 103.774 157.464 103.922C157.136 104.07 156.766 104.144 156.354 104.144ZM160.394 103.442C160.394 103.254 160.46 103.092 160.592 102.956C160.724 102.82 160.89 102.752 161.09 102.752C161.29 102.752 161.46 102.82 161.6 102.956C161.74 103.092 161.81 103.254 161.81 103.442C161.81 103.63 161.74 103.788 161.6 103.916C161.46 104.044 161.29 104.108 161.09 104.108C160.89 104.108 160.724 104.044 160.592 103.916C160.46 103.784 160.394 103.626 160.394 103.442ZM47.312 117.004L49.544 110.464H50.54L47.852 118H46.88L44.216 110.464H45.212L47.432 117.004H47.312ZM55.8473 118L55.7273 116.74V114.28C55.7273 113.764 55.6173 113.394 55.3973 113.17C55.1773 112.942 54.8473 112.828 54.4073 112.828C54.1593 112.828 53.9333 112.864 53.7293 112.936C53.5293 113.008 53.3693 113.12 53.2493 113.272C53.1333 113.42 53.0753 113.612 53.0753 113.848H52.0313C52.0313 113.432 52.1333 113.098 52.3373 112.846C52.5413 112.59 52.8213 112.406 53.1773 112.294C53.5373 112.178 53.9473 112.12 54.4073 112.12C54.8473 112.12 55.2373 112.194 55.5773 112.342C55.9173 112.49 56.1833 112.726 56.3753 113.05C56.5673 113.37 56.6633 113.788 56.6633 114.304V118H55.8473ZM53.8913 118.144C53.4193 118.144 53.0293 118.06 52.7213 117.892C52.4133 117.724 52.1833 117.506 52.0313 117.238C51.8793 116.97 51.8033 116.688 51.8033 116.392C51.8033 116.004 51.8993 115.688 52.0913 115.444C52.2873 115.2 52.5533 115.022 52.8893 114.91C53.2253 114.794 53.6033 114.736 54.0233 114.736C54.3233 114.736 54.6233 114.766 54.9233 114.826C55.2273 114.886 55.5233 114.968 55.8113 115.072V115.66C55.5713 115.564 55.2993 115.488 54.9953 115.432C54.6953 115.376 54.4193 115.348 54.1673 115.348C53.7833 115.348 53.4593 115.428 53.1953 115.588C52.9313 115.744 52.7993 116.012 52.7993 116.392C52.7993 116.672 52.8993 116.912 53.0993 117.112C53.3033 117.312 53.6273 117.412 54.0713 117.412C54.3833 117.412 54.6633 117.34 54.9113 117.196C55.1633 117.048 55.3613 116.864 55.5053 116.644C55.6533 116.424 55.7273 116.204 55.7273 115.984H55.9553C55.9553 116.368 55.8713 116.724 55.7033 117.052C55.5393 117.38 55.3033 117.644 54.9953 117.844C54.6873 118.044 54.3193 118.144 53.8913 118.144ZM59.6247 118V112.252H60.5607V118H59.6247ZM60.2727 115.408C60.2727 114.68 60.3427 114.076 60.4827 113.596C60.6227 113.112 60.8267 112.752 61.0947 112.516C61.3667 112.276 61.6967 112.156 62.0847 112.156C62.2127 112.156 62.3287 112.166 62.4327 112.186C62.5407 112.202 62.6487 112.228 62.7567 112.264L62.6967 113.188C62.5847 113.152 62.4627 113.122 62.3307 113.098C62.1987 113.07 62.0807 113.056 61.9767 113.056C61.6367 113.056 61.3627 113.154 61.1547 113.35C60.9467 113.542 60.7947 113.814 60.6987 114.166C60.6067 114.518 60.5607 114.932 60.5607 115.408H60.2727ZM66.6726 118.144C66.1766 118.144 65.7326 118.018 65.3406 117.766C64.9526 117.51 64.6446 117.156 64.4166 116.704C64.1926 116.252 64.0806 115.732 64.0806 115.144C64.0806 114.516 64.1926 113.976 64.4166 113.524C64.6406 113.072 64.9466 112.726 65.3346 112.486C65.7266 112.242 66.1726 112.12 66.6726 112.12C67.1086 112.12 67.4806 112.208 67.7886 112.384C68.0966 112.56 68.3446 112.798 68.5326 113.098C68.7206 113.398 68.8506 113.738 68.9226 114.118C68.9986 114.494 69.0206 114.884 68.9886 115.288H64.8366V114.712H68.3706L68.0946 114.892C68.1066 114.656 68.0926 114.42 68.0526 114.184C68.0166 113.948 67.9466 113.732 67.8426 113.536C67.7386 113.336 67.5926 113.176 67.4046 113.056C67.2166 112.936 66.9766 112.876 66.6846 112.876C66.3166 112.876 66.0086 112.97 65.7606 113.158C65.5126 113.346 65.3266 113.594 65.2026 113.902C65.0786 114.206 65.0166 114.536 65.0166 114.892V115.276C65.0166 115.676 65.0766 116.034 65.1966 116.35C65.3206 116.666 65.5046 116.916 65.7486 117.1C65.9926 117.284 66.3006 117.376 66.6726 117.376C67.0446 117.376 67.3506 117.286 67.5906 117.106C67.8306 116.926 67.9766 116.66 68.0286 116.308H69.0006C68.9406 116.688 68.8046 117.016 68.5926 117.292C68.3806 117.564 68.1106 117.774 67.7826 117.922C67.4546 118.07 67.0846 118.144 66.6726 118.144ZM75.6447 118V114.628C75.6447 114.08 75.5127 113.664 75.2487 113.38C74.9887 113.092 74.6327 112.948 74.1807 112.948C73.8367 112.948 73.5387 113.042 73.2867 113.23C73.0347 113.418 72.8407 113.688 72.7047 114.04C72.5687 114.388 72.5007 114.804 72.5007 115.288H72.1407C72.1407 114.62 72.2287 114.05 72.4047 113.578C72.5807 113.106 72.8367 112.746 73.1727 112.498C73.5127 112.246 73.9247 112.12 74.4087 112.12C74.8607 112.12 75.2467 112.222 75.5667 112.426C75.8907 112.626 76.1387 112.914 76.3107 113.29C76.4827 113.666 76.5687 114.112 76.5687 114.628V118H75.6447ZM71.5647 118V109.816H72.5007V118H71.5647ZM83.4268 112.252H84.3628V118H83.4268V112.252ZM79.3588 112.252H80.2948V115.828C80.2948 116.308 80.4108 116.672 80.6428 116.92C80.8788 117.168 81.2148 117.292 81.6508 117.292C82.0108 117.292 82.3228 117.196 82.5868 117.004C82.8548 116.812 83.0608 116.548 83.2048 116.212C83.3528 115.872 83.4268 115.484 83.4268 115.048H83.7748C83.7748 115.692 83.6808 116.242 83.4928 116.698C83.3088 117.154 83.0468 117.504 82.7068 117.748C82.3708 117.988 81.9748 118.108 81.5188 118.108C81.0868 118.108 80.7088 118.028 80.3848 117.868C80.0608 117.708 79.8088 117.466 79.6288 117.142C79.4488 116.814 79.3588 116.4 79.3588 115.9V112.252ZM89.5765 118.144C89.0205 118.144 88.5565 118.066 88.1845 117.91C87.8125 117.75 87.5305 117.532 87.3385 117.256C87.1465 116.976 87.0445 116.656 87.0325 116.296H87.9325C87.9525 116.66 88.0985 116.934 88.3705 117.118C88.6465 117.298 89.0205 117.388 89.4925 117.388C89.7405 117.388 89.9685 117.348 90.1765 117.268C90.3845 117.188 90.5505 117.078 90.6745 116.938C90.7985 116.798 90.8605 116.64 90.8605 116.464C90.8605 116.24 90.7785 116.064 90.6145 115.936C90.4505 115.808 90.1885 115.696 89.8285 115.6L88.7125 115.24C88.2285 115.088 87.8565 114.88 87.5965 114.616C87.3405 114.348 87.2125 114.028 87.2125 113.656C87.2125 113.192 87.4165 112.82 87.8245 112.54C88.2325 112.26 88.7685 112.12 89.4325 112.12C90.1365 112.12 90.6825 112.264 91.0705 112.552C91.4585 112.84 91.6605 113.2 91.6765 113.632H90.7525C90.7165 113.38 90.5885 113.19 90.3685 113.062C90.1485 112.93 89.8365 112.864 89.4325 112.864C89.0445 112.864 88.7405 112.952 88.5205 113.128C88.3045 113.3 88.1965 113.492 88.1965 113.704C88.1965 114.1 88.5365 114.392 89.2165 114.58L90.3565 114.964C90.8485 115.112 91.2245 115.306 91.4845 115.546C91.7485 115.786 91.8805 116.092 91.8805 116.464C91.8805 116.752 91.7865 117.024 91.5985 117.28C91.4105 117.536 91.1445 117.744 90.8005 117.904C90.4565 118.064 90.0485 118.144 89.5765 118.144ZM100.169 118.144C99.6128 118.144 99.1488 118.066 98.7768 117.91C98.4048 117.75 98.1228 117.532 97.9308 117.256C97.7388 116.976 97.6368 116.656 97.6248 116.296H98.5248C98.5448 116.66 98.6908 116.934 98.9628 117.118C99.2388 117.298 99.6128 117.388 100.085 117.388C100.333 117.388 100.561 117.348 100.769 117.268C100.977 117.188 101.143 117.078 101.267 116.938C101.391 116.798 101.453 116.64 101.453 116.464C101.453 116.24 101.371 116.064 101.207 115.936C101.043 115.808 100.781 115.696 100.421 115.6L99.3048 115.24C98.8208 115.088 98.4488 114.88 98.1888 114.616C97.9328 114.348 97.8048 114.028 97.8048 113.656C97.8048 113.192 98.0088 112.82 98.4168 112.54C98.8248 112.26 99.3608 112.12 100.025 112.12C100.729 112.12 101.275 112.264 101.663 112.552C102.051 112.84 102.253 113.2 102.269 113.632H101.345C101.309 113.38 101.181 113.19 100.961 113.062C100.741 112.93 100.429 112.864 100.025 112.864C99.6368 112.864 99.3328 112.952 99.1128 113.128C98.8968 113.3 98.7888 113.492 98.7888 113.704C98.7888 114.1 99.1288 114.392 99.8088 114.58L100.949 114.964C101.441 115.112 101.817 115.306 102.077 115.546C102.341 115.786 102.473 116.092 102.473 116.464C102.473 116.752 102.379 117.024 102.191 117.28C102.003 117.536 101.737 117.744 101.393 117.904C101.049 118.064 100.641 118.144 100.169 118.144ZM109.029 112.252H109.965V118H109.029V112.252ZM104.961 112.252H105.897V115.828C105.897 116.308 106.013 116.672 106.245 116.92C106.481 117.168 106.817 117.292 107.253 117.292C107.613 117.292 107.925 117.196 108.189 117.004C108.457 116.812 108.663 116.548 108.807 116.212C108.955 115.872 109.029 115.484 109.029 115.048H109.377C109.377 115.692 109.283 116.242 109.095 116.698C108.911 117.154 108.649 117.504 108.309 117.748C107.973 117.988 107.577 118.108 107.121 118.108C106.689 118.108 106.311 118.028 105.987 117.868C105.663 117.708 105.411 117.466 105.231 117.142C105.051 116.814 104.961 116.4 104.961 115.9V112.252ZM115.179 118.144C114.623 118.144 114.159 118.066 113.787 117.91C113.415 117.75 113.133 117.532 112.941 117.256C112.749 116.976 112.647 116.656 112.635 116.296H113.535C113.555 116.66 113.701 116.934 113.973 117.118C114.249 117.298 114.623 117.388 115.095 117.388C115.343 117.388 115.571 117.348 115.779 117.268C115.987 117.188 116.153 117.078 116.277 116.938C116.401 116.798 116.463 116.64 116.463 116.464C116.463 116.24 116.381 116.064 116.217 115.936C116.053 115.808 115.791 115.696 115.431 115.6L114.315 115.24C113.831 115.088 113.459 114.88 113.199 114.616C112.943 114.348 112.815 114.028 112.815 113.656C112.815 113.192 113.019 112.82 113.427 112.54C113.835 112.26 114.371 112.12 115.035 112.12C115.739 112.12 116.285 112.264 116.673 112.552C117.061 112.84 117.263 113.2 117.279 113.632H116.355C116.319 113.38 116.191 113.19 115.971 113.062C115.751 112.93 115.439 112.864 115.035 112.864C114.647 112.864 114.343 112.952 114.123 113.128C113.907 113.3 113.799 113.492 113.799 113.704C113.799 114.1 114.139 114.392 114.819 114.58L115.959 114.964C116.451 115.112 116.827 115.306 117.087 115.546C117.351 115.786 117.483 116.092 117.483 116.464C117.483 116.752 117.389 117.024 117.201 117.28C117.013 117.536 116.747 117.744 116.403 117.904C116.059 118.064 115.651 118.144 115.179 118.144ZM124.235 110.908C124.043 110.908 123.891 110.854 123.779 110.746C123.667 110.634 123.611 110.488 123.611 110.308C123.611 110.132 123.667 109.992 123.779 109.888C123.891 109.784 124.043 109.732 124.235 109.732C124.427 109.732 124.579 109.784 124.691 109.888C124.803 109.992 124.859 110.132 124.859 110.308C124.859 110.488 124.803 110.634 124.691 110.746C124.579 110.854 124.427 110.908 124.235 110.908ZM123.767 118V112.252H124.703V118H123.767ZM133.621 118.144C133.157 118.144 132.731 118.02 132.343 117.772C131.955 117.52 131.645 117.168 131.413 116.716C131.181 116.26 131.065 115.724 131.065 115.108C131.065 114.496 131.179 113.966 131.407 113.518C131.635 113.07 131.937 112.726 132.313 112.486C132.693 112.242 133.109 112.12 133.561 112.12C133.981 112.12 134.349 112.222 134.665 112.426C134.985 112.63 135.233 112.924 135.409 113.308C135.585 113.692 135.673 114.156 135.673 114.7H135.313C135.313 114.32 135.237 114 135.085 113.74C134.937 113.48 134.743 113.284 134.503 113.152C134.263 113.016 134.005 112.948 133.729 112.948C133.417 112.948 133.131 113.036 132.871 113.212C132.615 113.384 132.409 113.632 132.253 113.956C132.101 114.276 132.025 114.66 132.025 115.108C132.025 115.564 132.101 115.956 132.253 116.284C132.409 116.612 132.615 116.864 132.871 117.04C133.131 117.216 133.417 117.304 133.729 117.304C133.989 117.304 134.239 117.236 134.479 117.1C134.723 116.964 134.923 116.766 135.079 116.506C135.235 116.242 135.313 115.924 135.313 115.552H135.673C135.673 116.108 135.581 116.58 135.397 116.968C135.217 117.352 134.971 117.644 134.659 117.844C134.351 118.044 134.005 118.144 133.621 118.144ZM135.469 118L135.313 116.656V109.816H136.249V118H135.469ZM143.303 112.252H144.239V118H143.303V112.252ZM139.235 112.252H140.171V115.828C140.171 116.308 140.287 116.672 140.519 116.92C140.755 117.168 141.091 117.292 141.527 117.292C141.887 117.292 142.199 117.196 142.463 117.004C142.731 116.812 142.937 116.548 143.081 116.212C143.229 115.872 143.303 115.484 143.303 115.048H143.651C143.651 115.692 143.557 116.242 143.369 116.698C143.185 117.154 142.923 117.504 142.583 117.748C142.247 117.988 141.851 118.108 141.395 118.108C140.963 118.108 140.585 118.028 140.261 117.868C139.937 117.708 139.685 117.466 139.505 117.142C139.325 116.814 139.235 116.4 139.235 115.9V112.252ZM149.452 118.144C148.896 118.144 148.432 118.066 148.06 117.91C147.688 117.75 147.406 117.532 147.214 117.256C147.022 116.976 146.92 116.656 146.908 116.296H147.808C147.828 116.66 147.974 116.934 148.246 117.118C148.522 117.298 148.896 117.388 149.368 117.388C149.616 117.388 149.844 117.348 150.052 117.268C150.26 117.188 150.426 117.078 150.55 116.938C150.674 116.798 150.736 116.64 150.736 116.464C150.736 116.24 150.654 116.064 150.49 115.936C150.326 115.808 150.064 115.696 149.704 115.6L148.588 115.24C148.104 115.088 147.732 114.88 147.472 114.616C147.216 114.348 147.088 114.028 147.088 113.656C147.088 113.192 147.292 112.82 147.7 112.54C148.108 112.26 148.644 112.12 149.308 112.12C150.012 112.12 150.558 112.264 150.946 112.552C151.334 112.84 151.536 113.2 151.552 113.632H150.628C150.592 113.38 150.464 113.19 150.244 113.062C150.024 112.93 149.712 112.864 149.308 112.864C148.92 112.864 148.616 112.952 148.396 113.128C148.18 113.3 148.072 113.492 148.072 113.704C148.072 114.1 148.412 114.392 149.092 114.58L150.232 114.964C150.724 115.112 151.1 115.306 151.36 115.546C151.624 115.786 151.756 116.092 151.756 116.464C151.756 116.752 151.662 117.024 151.474 117.28C151.286 117.536 151.02 117.744 150.676 117.904C150.332 118.064 149.924 118.144 149.452 118.144Z" fill="white"/>
<path d="M98.354 38.6109C94.4706 38.6109 90.6743 39.0412 87.4454 39.8474C84.2164 40.6536 81.6997 41.7995 80.2136 43.1402C78.7275 44.4808 78.3386 45.9561 79.0963 47.3793C79.8539 48.8026 81.7239 50.1099 84.4699 51.136C87.216 52.1621 90.7146 52.8609 94.5234 53.144C98.3322 53.4271 102.28 53.2818 105.868 52.7265C109.456 52.1712 112.522 51.2308 114.68 50.0242C116.837 48.8176 117.989 47.3991 117.989 45.9479C117.983 44.0027 115.913 42.1378 112.232 40.7623C108.551 39.3868 103.56 38.6131 98.354 38.6109ZM98.354 49.6165C96.4123 49.6165 94.5142 49.4013 92.8997 48.9982C91.2852 48.5951 90.0269 48.0222 89.2838 47.3518C88.5407 46.6815 88.3463 45.9439 88.7251 45.2323C89.104 44.5206 90.039 43.867 91.412 43.3539C92.785 42.8409 94.5343 42.4915 96.4387 42.3499C98.3431 42.2084 100.317 42.281 102.111 42.5587C103.905 42.8363 105.438 43.3065 106.517 43.9098C107.596 44.5131 108.172 45.2224 108.172 45.9479C108.169 46.9206 107.133 47.853 105.293 48.5407C103.452 49.2285 100.957 49.6153 98.354 49.6165Z" fill="white"/>
<path d="M136.085 31.8381C126.756 28.3531 114.303 26.2828 101.129 26.0269C87.9557 25.771 74.9953 27.3476 64.7497 30.4524C54.504 33.5572 47.6992 37.9701 45.6487 42.8394C43.5982 47.7087 46.4474 52.6892 53.6463 56.8197L90.7402 78.0986C91.5657 78.5721 92.6944 78.9612 94.0239 79.2304C95.3535 79.4997 96.8419 79.6408 98.3542 79.6408C99.8665 79.6408 101.355 79.4997 102.684 79.2304C104.014 78.9612 105.143 78.5721 105.968 78.0986L143.063 56.8197C149.743 52.9881 152.695 48.4149 151.424 43.8667C150.154 39.3185 144.738 35.0717 136.085 31.8381ZM134.837 54.8173L98.3543 75.7451L61.8709 54.8173C50.7035 48.4112 53.0986 39.8384 67.566 34.4321C71.6091 32.9213 76.4091 31.7228 81.6917 30.9051C86.9744 30.0875 92.6364 29.6666 98.3543 29.6666C104.072 29.6666 109.734 30.0875 115.017 30.9051C120.3 31.7228 125.1 32.9213 129.143 34.4321C143.61 39.8384 146.005 48.4112 134.837 54.8173Z" fill="white"/>
</svg>
